<svg width="1006" height="142" viewBox="0 0 1006 142" fill="none" xmlns="http://www.w3.org/2000/svg">
<mask id="path-1-outside-1_84416_3657" maskUnits="userSpaceOnUse" x="0" y="35" width="1006" height="77" fill="black">
<rect fill="white" y="35" width="1006" height="77"/>
<path d="M21.952 81.656L16.576 107H4L18.208 39.8H42.208C45.024 39.8 47.552 40.248 49.792 41.144C52.096 42.04 54.048 43.288 55.648 44.888C57.248 46.488 58.464 48.376 59.296 50.552C60.192 52.728 60.64 55.096 60.64 57.656C60.64 61.24 60.032 64.504 58.816 67.448C57.6 70.392 55.872 72.92 53.632 75.032C51.392 77.144 48.704 78.776 45.568 79.928C42.432 81.08 38.944 81.656 35.104 81.656H21.952ZM24.544 69.56H36.256C39.52 69.56 42.24 68.6 44.416 66.68C46.592 64.76 47.68 62.264 47.68 59.192C47.68 56.824 46.912 55.032 45.376 53.816C43.904 52.536 41.952 51.896 39.52 51.896H28.288L24.544 69.56ZM76.9893 39.8H89.6613L83.8053 67.256H103.005L108.861 39.8H121.533L107.229 107H94.5573L100.413 79.352H81.2133L75.3573 107H62.7812L76.9893 39.8ZM127.803 65.912C129.787 56.44 133.083 49.496 137.691 45.08C142.363 40.664 148.763 38.456 156.891 38.456C160.283 38.456 163.291 39 165.915 40.088C168.539 41.112 170.747 42.584 172.539 44.504C174.331 46.36 175.675 48.568 176.571 51.128C177.531 53.688 178.01 56.44 178.01 59.384C178.01 60.472 177.947 61.56 177.819 62.648C177.755 63.736 177.595 64.824 177.339 65.912L174.171 80.888C172.187 90.36 168.859 97.304 164.187 101.72C159.579 106.136 153.211 108.344 145.083 108.344C141.691 108.344 138.683 107.832 136.059 106.808C133.435 105.72 131.227 104.248 129.435 102.392C127.643 100.472 126.267 98.264 125.307 95.768C124.411 93.208 123.963 90.424 123.963 87.416C123.963 86.328 123.995 85.24 124.059 84.152C124.187 83.064 124.379 81.976 124.635 80.888L127.803 65.912ZM146.234 96.824C148.411 96.824 150.331 96.44 151.995 95.672C153.659 94.84 155.099 93.752 156.315 92.408C157.595 91.064 158.619 89.464 159.387 87.608C160.219 85.752 160.859 83.768 161.307 81.656L164.859 65.144C165.051 64.12 165.179 63.256 165.243 62.552C165.371 61.784 165.435 61.048 165.435 60.344C165.435 57.08 164.571 54.552 162.843 52.76C161.179 50.904 158.811 49.976 155.739 49.976C153.563 49.976 151.643 50.392 149.979 51.224C148.315 51.992 146.843 53.048 145.562 54.392C144.347 55.736 143.323 57.336 142.491 59.192C141.723 61.048 141.115 63.032 140.667 65.144L137.115 81.656C136.731 83.384 136.539 84.984 136.539 86.456C136.539 89.72 137.371 92.28 139.035 94.136C140.763 95.928 143.163 96.824 146.234 96.824ZM189.944 39.8H238.328V51.896H220.472L208.76 107H196.088L207.8 51.896H189.944V39.8ZM245.365 65.912C247.349 56.44 250.645 49.496 255.253 45.08C259.925 40.664 266.325 38.456 274.453 38.456C277.845 38.456 280.853 39 283.477 40.088C286.101 41.112 288.309 42.584 290.101 44.504C291.893 46.36 293.237 48.568 294.133 51.128C295.093 53.688 295.573 56.44 295.573 59.384C295.573 60.472 295.509 61.56 295.381 62.648C295.317 63.736 295.157 64.824 294.901 65.912L291.733 80.888C289.749 90.36 286.421 97.304 281.749 101.72C277.141 106.136 270.773 108.344 262.645 108.344C259.253 108.344 256.245 107.832 253.621 106.808C250.997 105.72 248.789 104.248 246.997 102.392C245.205 100.472 243.829 98.264 242.869 95.768C241.973 93.208 241.525 90.424 241.525 87.416C241.525 86.328 241.557 85.24 241.621 84.152C241.749 83.064 241.941 81.976 242.197 80.888L245.365 65.912ZM263.797 96.824C265.973 96.824 267.893 96.44 269.557 95.672C271.221 94.84 272.661 93.752 273.877 92.408C275.157 91.064 276.181 89.464 276.949 87.608C277.781 85.752 278.421 83.768 278.869 81.656L282.421 65.144C282.613 64.12 282.741 63.256 282.805 62.552C282.933 61.784 282.997 61.048 282.997 60.344C282.997 57.08 282.133 54.552 280.405 52.76C278.741 50.904 276.373 49.976 273.301 49.976C271.125 49.976 269.205 50.392 267.541 51.224C265.877 51.992 264.405 53.048 263.125 54.392C261.909 55.736 260.885 57.336 260.053 59.192C259.285 61.048 258.677 63.032 258.229 65.144L254.677 81.656C254.293 83.384 254.101 84.984 254.101 86.456C254.101 89.72 254.933 92.28 256.597 94.136C258.325 95.928 260.725 96.824 263.797 96.824ZM322.098 73.016H351.762V74.168L344.85 107H333.33L334.962 99.512H333.234C331.954 102.008 330.034 104.12 327.474 105.848C324.914 107.512 321.458 108.344 317.106 108.344C314.61 108.344 312.306 107.928 310.194 107.096C308.082 106.328 306.258 105.144 304.722 103.544C303.186 101.944 301.97 99.992 301.074 97.688C300.242 95.32 299.826 92.6 299.826 89.528C299.826 87.032 300.146 84.28 300.786 81.272L304.146 65.528C306.13 56.248 309.65 49.432 314.706 45.08C319.826 40.664 326.45 38.456 334.578 38.456C337.778 38.456 340.626 38.968 343.122 39.992C345.682 40.952 347.826 42.296 349.554 44.024C351.282 45.752 352.594 47.768 353.49 50.072C354.45 52.312 354.93 54.712 354.93 57.272C354.93 58.168 354.866 59.128 354.738 60.152C354.61 61.112 354.45 62.008 354.258 62.84L353.97 63.992H341.298L341.586 62.84C341.778 62.072 341.906 61.4 341.97 60.824C342.034 60.248 342.066 59.672 342.066 59.096C342.066 56.408 341.234 54.328 339.57 52.856C337.906 51.32 335.474 50.552 332.274 50.552C330.482 50.552 328.786 50.84 327.186 51.416C325.586 51.992 324.082 52.92 322.674 54.2C321.33 55.416 320.146 57.048 319.122 59.096C318.098 61.08 317.266 63.544 316.626 66.488L313.554 80.696C313.298 81.848 313.138 82.808 313.074 83.576C313.01 84.344 312.978 85.112 312.978 85.88C312.978 89.336 313.874 91.928 315.666 93.656C317.458 95.384 319.89 96.248 322.962 96.248C326.738 96.248 329.81 95.256 332.178 93.272C334.61 91.224 336.178 88.504 336.882 85.112H322.098V73.016ZM401.232 107H388.368L392.688 86.84C392.816 86.2 392.88 85.688 392.88 85.304C392.88 84.216 392.528 83.352 391.824 82.712C391.12 82.008 390.032 81.656 388.56 81.656H374.64L369.264 107H356.688L370.896 39.8H394.512C397.648 39.8 400.4 40.248 402.768 41.144C405.2 41.976 407.216 43.128 408.816 44.6C410.48 46.008 411.696 47.704 412.464 49.688C413.296 51.672 413.712 53.752 413.712 55.928C413.712 60.6 412.624 64.408 410.448 67.352C408.336 70.232 405.072 72.408 400.656 73.88V75.608C402.512 75.8 403.92 76.472 404.88 77.624C405.904 78.712 406.416 80.12 406.416 81.848C406.416 82.488 406.352 83.128 406.224 83.768L401.232 107ZM377.232 69.56H388.752C392.144 69.56 394.928 68.664 397.104 66.872C399.28 65.08 400.368 62.648 400.368 59.576C400.368 57.144 399.696 55.256 398.352 53.912C397.072 52.568 395.088 51.896 392.4 51.896H380.976L377.232 69.56ZM452.717 92.6H430.541L424.397 107H410.861L440.429 39.8H463.853L465.485 107H452.909L452.717 92.6ZM435.629 80.504H452.525L452.045 46.136H450.317L435.629 80.504ZM492.202 81.656L486.826 107H474.25L488.458 39.8H512.458C515.274 39.8 517.802 40.248 520.042 41.144C522.346 42.04 524.298 43.288 525.898 44.888C527.498 46.488 528.714 48.376 529.546 50.552C530.442 52.728 530.89 55.096 530.89 57.656C530.89 61.24 530.282 64.504 529.066 67.448C527.85 70.392 526.122 72.92 523.882 75.032C521.642 77.144 518.954 78.776 515.818 79.928C512.682 81.08 509.194 81.656 505.354 81.656H492.202ZM494.794 69.56H506.506C509.77 69.56 512.49 68.6 514.666 66.68C516.842 64.76 517.93 62.264 517.93 59.192C517.93 56.824 517.162 55.032 515.626 53.816C514.154 52.536 512.202 51.896 509.77 51.896H498.538L494.794 69.56ZM547.239 39.8H559.911L554.055 67.256H573.255L579.111 39.8H591.783L577.479 107H564.807L570.663 79.352H551.463L545.607 107H533.031L547.239 39.8ZM593.541 105.848L607.557 39.8H647.397V51.896H617.637L614.373 67.256H640.389V79.352H611.781L608.517 94.904H636.837V107H593.541V105.848ZM711.103 105.848L725.119 39.8H764.959V51.896H735.199L731.935 67.256H757.951V79.352H729.343L726.079 94.904H754.399V107H711.103V105.848ZM773.916 39.8H786.78L788.988 100.664H790.716L816.54 39.8H829.788V40.952L800.796 107H777.18L773.916 39.8ZM828.666 105.848L842.682 39.8H882.522V51.896H852.762L849.498 67.256H875.514V79.352H846.906L843.642 94.904H871.962V107H828.666V105.848ZM918.359 100.664H920.087L933.047 39.8H945.143L930.839 107H907.223L911.735 46.136H910.007L897.047 107H885.047L899.255 39.8H922.871L918.359 100.664ZM954.1 39.8H1002.48V51.896H984.628L972.916 107H960.244L971.956 51.896H954.1V39.8Z"/>
</mask>
<path d="M21.952 81.656V78.656H19.5216L19.0173 81.0335L21.952 81.656ZM16.576 107V110H19.0064L19.5107 107.623L16.576 107ZM4 107L1.06489 106.379L0.299394 110H4V107ZM18.208 39.8V36.8H15.776L15.2729 39.1794L18.208 39.8ZM49.792 41.144L48.6778 43.9294L48.6912 43.9348L48.7047 43.94L49.792 41.144ZM59.296 50.552L56.4938 51.6234L56.5075 51.659L56.522 51.6942L59.296 50.552ZM53.632 75.032L55.69 77.2148L53.632 75.032ZM45.568 79.928L46.6025 82.744L45.568 79.928ZM24.544 69.56L21.6092 68.938L20.8415 72.56H24.544V69.56ZM44.416 66.68L46.4009 68.9295L44.416 66.68ZM45.376 53.816L43.4075 56.0798L43.4597 56.1252L43.5139 56.1681L45.376 53.816ZM28.288 51.896V48.896H25.8572L25.3532 51.2739L28.288 51.896ZM19.0173 81.0335L13.6413 106.377L19.5107 107.623L24.8867 82.2785L19.0173 81.0335ZM16.576 104H4V110H16.576V104ZM6.93511 107.621L21.1431 40.4206L15.2729 39.1794L1.06489 106.379L6.93511 107.621ZM18.208 42.8H42.208V36.8H18.208V42.8ZM42.208 42.8C44.7052 42.8 46.8462 43.1968 48.6778 43.9294L50.9062 38.3586C48.2578 37.2992 45.3428 36.8 42.208 36.8V42.8ZM48.7047 43.94C50.6572 44.6993 52.2471 45.7297 53.5267 47.0093L57.7693 42.7667C55.8489 40.8462 53.5349 39.3807 50.8793 38.348L48.7047 43.94ZM53.5267 47.0093C54.8195 48.3022 55.8079 49.8294 56.4938 51.6234L62.0982 49.4806C61.1201 46.9226 59.6765 44.6738 57.7693 42.7667L53.5267 47.0093ZM56.522 51.6942C57.2561 53.4772 57.64 55.4532 57.64 57.656H63.64C63.64 54.7388 63.1279 51.9788 62.07 49.4098L56.522 51.6942ZM57.64 57.656C57.64 60.8961 57.0915 63.7647 56.0432 66.3027L61.5888 68.5933C62.9725 65.2433 63.64 61.5839 63.64 57.656H57.64ZM56.0432 66.3027C54.9836 68.8681 53.4942 71.0387 51.574 72.8492L55.69 77.2148C58.2498 74.8013 60.2164 71.9159 61.5888 68.5933L56.0432 66.3027ZM51.574 72.8492C49.6532 74.6602 47.3218 76.0877 44.5336 77.112L46.6025 82.744C50.0862 81.4643 53.1308 79.6278 55.69 77.2148L51.574 72.8492ZM44.5336 77.112C41.7744 78.1256 38.643 78.656 35.104 78.656V84.656C39.245 84.656 43.0896 84.0344 46.6025 82.744L44.5336 77.112ZM35.104 78.656H21.952V84.656H35.104V78.656ZM24.544 72.56H36.256V66.56H24.544V72.56ZM36.256 72.56C40.1533 72.56 43.6077 71.3941 46.4009 68.9295L42.4311 64.4305C40.8723 65.8059 38.8867 66.56 36.256 66.56V72.56ZM46.4009 68.9295C49.264 66.4033 50.68 63.0676 50.68 59.192H44.68C44.68 61.4604 43.9201 63.1167 42.4311 64.4305L46.4009 68.9295ZM50.68 59.192C50.68 56.1198 49.6445 53.3689 47.2381 51.4639L43.5139 56.1681C44.1795 56.6951 44.68 57.5282 44.68 59.192H50.68ZM47.3445 51.5522C45.2016 49.6888 42.4906 48.896 39.52 48.896V54.896C41.4134 54.896 42.6064 55.3832 43.4075 56.0798L47.3445 51.5522ZM39.52 48.896H28.288V54.896H39.52V48.896ZM25.3532 51.2739L21.6092 68.938L27.4788 70.182L31.2228 52.5181L25.3532 51.2739ZM76.9893 39.8V36.8H74.5572L74.0541 39.1794L76.9893 39.8ZM89.6612 39.8L92.5953 40.4258L93.3686 36.8H89.6612V39.8ZM83.8053 67.256L80.8712 66.6302L80.0979 70.256H83.8053V67.256ZM103.005 67.256V70.256H105.433L105.939 67.8818L103.005 67.256ZM108.861 39.8V36.8H106.434L105.927 39.1742L108.861 39.8ZM121.533 39.8L124.468 40.4246L125.239 36.8H121.533V39.8ZM107.229 107V110H109.658L110.164 107.625L107.229 107ZM94.5573 107L91.6224 106.378L90.8553 110H94.5573V107ZM100.413 79.352L103.348 79.9736L104.115 76.352H100.413V79.352ZM81.2132 79.352V76.352H78.7821L78.2784 78.7304L81.2132 79.352ZM75.3573 107V110H77.7884L78.2921 107.622L75.3573 107ZM62.7812 107L59.8461 106.379L59.0806 110H62.7812V107ZM76.9893 42.8H89.6612V36.8H76.9893V42.8ZM86.7272 39.1742L80.8712 66.6302L86.7393 67.8818L92.5953 40.4258L86.7272 39.1742ZM83.8053 70.256H103.005V64.256H83.8053V70.256ZM105.939 67.8818L111.795 40.4258L105.927 39.1742L100.071 66.6302L105.939 67.8818ZM108.861 42.8H121.533V36.8H108.861V42.8ZM118.599 39.1754L104.295 106.375L110.164 107.625L124.468 40.4246L118.599 39.1754ZM107.229 104H94.5573V110H107.229V104ZM97.4921 107.622L103.348 79.9736L97.4784 78.7304L91.6224 106.378L97.4921 107.622ZM100.413 76.352H81.2132V82.352H100.413V76.352ZM78.2784 78.7304L72.4224 106.378L78.2921 107.622L84.1481 79.9736L78.2784 78.7304ZM75.3573 104H62.7812V110H75.3573V104ZM65.7164 107.621L79.9244 40.4206L74.0541 39.1794L59.8461 106.379L65.7164 107.621ZM127.802 65.912L130.738 66.5329L130.739 66.527L127.802 65.912ZM137.691 45.08L135.63 42.8998L135.622 42.9069L135.615 42.914L137.691 45.08ZM165.915 40.088L164.765 42.8592L164.795 42.8713L164.824 42.8827L165.915 40.088ZM172.538 44.504L170.345 46.551L170.363 46.5695L170.38 46.5878L172.538 44.504ZM176.57 51.128L173.739 52.119L173.75 52.1503L173.762 52.1814L176.57 51.128ZM177.818 62.648L174.839 62.2975L174.829 62.3844L174.824 62.4718L177.818 62.648ZM177.339 65.912L174.418 65.2249L174.41 65.2579L174.403 65.2911L177.339 65.912ZM174.171 80.888L171.235 80.2671L171.234 80.273L174.171 80.888ZM164.187 101.72L162.126 99.5398L162.118 99.5469L162.111 99.554L164.187 101.72ZM136.059 106.808L134.909 109.579L134.939 109.591L134.968 109.603L136.059 106.808ZM129.435 102.392L127.241 104.439L127.259 104.458L127.276 104.476L129.435 102.392ZM125.307 95.768L122.475 96.759L122.49 96.8022L122.506 96.8449L125.307 95.768ZM124.059 84.152L121.079 83.8015L121.069 83.8884L121.064 83.9758L124.059 84.152ZM124.634 80.888L127.555 81.5751L127.563 81.5421L127.57 81.5089L124.634 80.888ZM151.995 95.672L153.252 98.3959L153.294 98.3762L153.336 98.3553L151.995 95.672ZM156.314 92.408L154.142 90.339L154.116 90.3668L154.09 90.3953L156.314 92.408ZM159.387 87.608L156.649 86.3808L156.631 86.4206L156.614 86.4609L159.387 87.608ZM161.307 81.656L158.374 81.0251L158.372 81.0335L161.307 81.656ZM164.859 65.144L167.791 65.7749L167.8 65.736L167.807 65.6969L164.859 65.144ZM165.243 62.552L162.283 62.0588L162.265 62.1691L162.255 62.2804L165.243 62.552ZM162.842 52.76L160.609 54.7626L160.645 54.8032L160.683 54.8424L162.842 52.76ZM149.979 51.224L151.236 53.9479L151.278 53.9282L151.32 53.9073L149.979 51.224ZM145.562 54.392L143.39 52.323L143.364 52.3508L143.338 52.3793L145.562 54.392ZM142.49 59.192L139.753 57.9648L139.735 58.0046L139.718 58.0449L142.49 59.192ZM140.667 65.144L143.599 65.7749L143.601 65.7665L140.667 65.144ZM137.115 81.656L140.043 82.3068L140.045 82.2969L140.047 82.2869L137.115 81.656ZM139.035 94.136L136.801 96.1386L136.837 96.1792L136.875 96.2184L139.035 94.136ZM130.739 66.527C132.659 57.3606 135.767 51.0788 139.766 47.246L135.615 42.914C130.398 47.9132 126.914 55.5194 124.866 65.297L130.739 66.527ZM139.751 47.2602C143.73 43.4998 149.318 41.456 156.891 41.456V35.456C148.207 35.456 140.995 37.8282 135.63 42.8998L139.751 47.2602ZM156.891 41.456C159.963 41.456 162.569 41.9486 164.765 42.8592L167.064 37.3168C164.012 36.0514 160.602 35.456 156.891 35.456V41.456ZM164.824 42.8827C167.06 43.7553 168.882 44.9832 170.345 46.551L174.732 42.457C172.611 40.1848 170.017 38.4687 167.005 37.2933L164.824 42.8827ZM170.38 46.5878C171.856 48.1165 172.978 49.9462 173.739 52.119L179.402 50.1369C178.371 47.1898 176.805 44.6035 174.697 42.4202L170.38 46.5878ZM173.762 52.1814C174.586 54.3795 175.01 56.772 175.01 59.384H181.01C181.01 56.108 180.475 52.9965 179.379 50.0746L173.762 52.1814ZM175.01 59.384C175.01 60.354 174.953 61.325 174.839 62.2975L180.798 62.9985C180.94 61.795 181.01 60.5899 181.01 59.384H175.01ZM174.824 62.4718C174.77 63.3834 174.636 64.3005 174.418 65.2249L180.259 66.5991C180.553 65.3475 180.739 64.0886 180.813 62.8242L174.824 62.4718ZM174.403 65.2911L171.235 80.2671L177.106 81.5089L180.274 66.5329L174.403 65.2911ZM171.234 80.273C169.316 89.4309 166.18 95.7073 162.126 99.5398L166.247 103.9C171.537 98.9007 175.057 91.2891 177.107 81.503L171.234 80.273ZM162.111 99.554C158.203 103.299 152.658 105.344 145.083 105.344V111.344C153.763 111.344 160.954 108.973 166.262 103.886L162.111 99.554ZM145.083 105.344C141.989 105.344 139.362 104.877 137.149 104.013L134.968 109.603C138.003 110.787 141.392 111.344 145.083 111.344V105.344ZM137.208 104.037C134.925 103.09 133.071 101.84 131.593 100.308L127.276 104.476C129.382 106.656 131.944 108.35 134.909 109.579L137.208 104.037ZM131.628 100.345C130.103 98.7117 128.931 96.8345 128.107 94.6911L122.506 96.8449C123.602 99.6935 125.182 102.232 127.241 104.439L131.628 100.345ZM128.138 94.7769C127.365 92.5683 126.963 90.1231 126.963 87.416H120.963C120.963 90.7249 121.456 93.8477 122.475 96.759L128.138 94.7769ZM126.963 87.416C126.963 86.3869 126.993 85.3576 127.053 84.3282L121.064 83.9758C120.996 85.1224 120.963 86.2691 120.963 87.416H126.963ZM127.038 84.5025C127.152 83.53 127.324 82.5544 127.555 81.5751L121.714 80.2009C121.433 81.3976 121.221 82.598 121.079 83.8015L127.038 84.5025ZM127.57 81.5089L130.738 66.5329L124.867 65.2911L121.699 80.2671L127.57 81.5089ZM146.234 99.824C148.764 99.824 151.127 99.3767 153.252 98.3959L150.737 92.9481C149.534 93.5033 148.057 93.824 146.234 93.824V99.824ZM153.336 98.3553C155.325 97.3611 157.066 96.0485 158.539 94.4207L154.09 90.3953C153.131 91.4555 151.992 92.3189 150.653 92.9887L153.336 98.3553ZM158.487 94.477C160.042 92.844 161.261 90.9245 162.159 88.7551L156.614 86.4609C155.976 88.0035 155.147 89.284 154.142 90.339L158.487 94.477ZM162.124 88.8352C163.048 86.7737 163.752 84.5858 164.241 82.2785L158.372 81.0335C157.965 82.9502 157.389 84.7303 156.649 86.3808L162.124 88.8352ZM164.239 82.2869L167.791 65.7749L161.926 64.5131L158.374 81.0251L164.239 82.2869ZM167.807 65.6969C168.009 64.6189 168.155 63.6546 168.23 62.8236L162.255 62.2804C162.202 62.8574 162.092 63.6211 161.91 64.5911L167.807 65.6969ZM168.202 63.0452C168.354 62.1311 168.435 61.2295 168.435 60.344H162.435C162.435 60.8665 162.387 61.4369 162.283 62.0588L168.202 63.0452ZM168.435 60.344C168.435 56.553 167.421 53.1859 165.002 50.6776L160.683 54.8424C161.72 55.9181 162.435 57.607 162.435 60.344H168.435ZM165.076 50.7574C162.714 48.1231 159.449 46.976 155.738 46.976V52.976C158.172 52.976 159.643 53.6849 160.609 54.7626L165.076 50.7574ZM155.738 46.976C153.176 46.976 150.783 47.4678 148.637 48.5407L151.32 53.9073C152.502 53.3162 153.949 52.976 155.738 52.976V46.976ZM148.721 48.5001C146.709 49.4288 144.928 50.7085 143.39 52.323L147.735 56.461C148.757 55.3875 149.92 54.5552 151.236 53.9479L148.721 48.5001ZM143.338 52.3793C141.887 53.9832 140.698 55.8564 139.753 57.9648L145.228 60.4192C145.947 58.8156 146.806 57.4888 147.787 56.4047L143.338 52.3793ZM139.718 58.0449C138.875 60.0825 138.215 62.2433 137.732 64.5215L143.601 65.7665C144.014 63.8207 144.57 62.0135 145.263 60.3391L139.718 58.0449ZM137.734 64.5131L134.182 81.0251L140.047 82.2869L143.599 65.7749L137.734 64.5131ZM134.186 81.0052C133.764 82.9054 133.538 84.7264 133.538 86.456H139.538C139.538 85.2416 139.697 83.8626 140.043 82.3068L134.186 81.0052ZM133.538 86.456C133.538 90.2252 134.507 93.5799 136.801 96.1386L141.268 92.1334C140.234 90.98 139.538 89.2148 139.538 86.456H133.538ZM136.875 96.2184C139.296 98.7286 142.551 99.824 146.234 99.824V93.824C143.774 93.824 142.229 93.1274 141.194 92.0536L136.875 96.2184ZM189.944 39.8V36.8H186.944V39.8H189.944ZM238.328 39.8H241.328V36.8H238.328V39.8ZM238.328 51.896V54.896H241.328V51.896H238.328ZM220.472 51.896V48.896H218.042L217.537 51.2723L220.472 51.896ZM208.76 107V110H211.189L211.694 107.624L208.76 107ZM196.088 107L193.153 106.376L192.383 110H196.088V107ZM207.8 51.896L210.734 52.5197L211.504 48.896H207.8V51.896ZM189.944 51.896H186.944V54.896H189.944V51.896ZM189.944 42.8H238.328V36.8H189.944V42.8ZM235.328 39.8V51.896H241.328V39.8H235.328ZM238.328 48.896H220.472V54.896H238.328V48.896ZM217.537 51.2723L205.825 106.376L211.694 107.624L223.406 52.5197L217.537 51.2723ZM208.76 104H196.088V110H208.76V104ZM199.022 107.624L210.734 52.5197L204.865 51.2723L193.153 106.376L199.022 107.624ZM207.8 48.896H189.944V54.896H207.8V48.896ZM192.944 51.896V39.8H186.944V51.896H192.944ZM245.365 65.912L248.3 66.5329L248.301 66.527L245.365 65.912ZM255.253 45.08L253.192 42.8998L253.185 42.9069L253.177 42.914L255.253 45.08ZM283.477 40.088L282.328 42.8592L282.357 42.8713L282.386 42.8827L283.477 40.088ZM290.101 44.504L287.908 46.551L287.925 46.5695L287.943 46.5878L290.101 44.504ZM294.133 51.128L291.301 52.119L291.312 52.1503L291.324 52.1814L294.133 51.128ZM295.381 62.648L292.402 62.2975L292.391 62.3844L292.386 62.4718L295.381 62.648ZM294.901 65.912L291.981 65.2249L291.973 65.2579L291.966 65.2911L294.901 65.912ZM291.733 80.888L288.798 80.2671L288.797 80.273L291.733 80.888ZM281.749 101.72L279.688 99.5398L279.681 99.5469L279.673 99.554L281.749 101.72ZM253.621 106.808L252.472 109.579L252.501 109.591L252.53 109.603L253.621 106.808ZM246.997 102.392L244.804 104.439L244.821 104.458L244.839 104.476L246.997 102.392ZM242.869 95.768L240.037 96.759L240.053 96.8022L240.069 96.8449L242.869 95.768ZM241.621 84.152L238.642 83.8015L238.631 83.8884L238.626 83.9758L241.621 84.152ZM242.197 80.888L245.117 81.5751L245.125 81.5421L245.132 81.5089L242.197 80.888ZM269.557 95.672L270.814 98.3959L270.857 98.3762L270.899 98.3553L269.557 95.672ZM273.877 92.408L271.705 90.339L271.678 90.3668L271.652 90.3953L273.877 92.408ZM276.949 87.608L274.211 86.3808L274.194 86.4206L274.177 86.4609L276.949 87.608ZM278.869 81.656L275.936 81.0251L275.934 81.0335L278.869 81.656ZM282.421 65.144L285.354 65.7749L285.362 65.736L285.37 65.6969L282.421 65.144ZM282.805 62.552L279.846 62.0588L279.827 62.1691L279.817 62.2804L282.805 62.552ZM280.405 52.76L278.171 54.7626L278.208 54.8032L278.245 54.8424L280.405 52.76ZM267.541 51.224L268.798 53.9479L268.841 53.9282L268.883 53.9073L267.541 51.224ZM263.125 54.392L260.953 52.323L260.926 52.3508L260.9 52.3793L263.125 54.392ZM260.053 59.192L257.315 57.9648L257.298 58.0046L257.281 58.0449L260.053 59.192ZM258.229 65.144L261.162 65.7749L261.164 65.7665L258.229 65.144ZM254.677 81.656L257.606 82.3068L257.608 82.2969L257.61 82.2869L254.677 81.656ZM256.597 94.136L254.363 96.1386L254.4 96.1792L254.437 96.2184L256.597 94.136ZM248.301 66.527C250.221 57.3606 253.329 51.0788 257.329 47.246L253.177 42.914C247.961 47.9132 244.477 55.5194 242.429 65.297L248.301 66.527ZM257.314 47.2602C261.292 43.4998 266.88 41.456 274.453 41.456V35.456C265.77 35.456 258.558 37.8282 253.192 42.8998L257.314 47.2602ZM274.453 41.456C277.526 41.456 280.132 41.9486 282.328 42.8592L284.626 37.3168C281.574 36.0514 278.164 35.456 274.453 35.456V41.456ZM282.386 42.8827C284.622 43.7553 286.445 44.9832 287.908 46.551L292.294 42.457C290.173 40.1848 287.58 38.4687 284.568 37.2933L282.386 42.8827ZM287.943 46.5878C289.419 48.1165 290.541 49.9462 291.301 52.119L296.965 50.1369C295.933 47.1898 294.367 44.6035 292.259 42.4202L287.943 46.5878ZM291.324 52.1814C292.148 54.3795 292.573 56.772 292.573 59.384H298.573C298.573 56.108 298.038 52.9965 296.942 50.0746L291.324 52.1814ZM292.573 59.384C292.573 60.354 292.516 61.325 292.402 62.2975L298.36 62.9985C298.502 61.795 298.573 60.5899 298.573 59.384H292.573ZM292.386 62.4718C292.333 63.3834 292.198 64.3005 291.981 65.2249L297.821 66.5991C298.116 65.3475 298.301 64.0886 298.376 62.8242L292.386 62.4718ZM291.966 65.2911L288.798 80.2671L294.668 81.5089L297.836 66.5329L291.966 65.2911ZM288.797 80.273C286.879 89.4309 283.743 95.7073 279.688 99.5398L283.81 103.9C289.099 98.9007 292.62 91.2891 294.669 81.503L288.797 80.273ZM279.673 99.554C275.765 103.299 270.22 105.344 262.645 105.344V111.344C271.326 111.344 278.517 108.973 283.825 103.886L279.673 99.554ZM262.645 105.344C259.552 105.344 256.925 104.877 254.712 104.013L252.53 109.603C255.565 110.787 258.954 111.344 262.645 111.344V105.344ZM254.77 104.037C252.487 103.09 250.634 101.84 249.155 100.308L244.839 104.476C246.944 106.656 249.507 108.35 252.472 109.579L254.77 104.037ZM249.19 100.345C247.666 98.7117 246.493 96.8345 245.669 94.6911L240.069 96.8449C241.165 99.6935 242.744 102.232 244.804 104.439L249.19 100.345ZM245.701 94.7769C244.928 92.5683 244.525 90.1231 244.525 87.416H238.525C238.525 90.7249 239.018 93.8477 240.037 96.759L245.701 94.7769ZM244.525 87.416C244.525 86.3869 244.555 85.3576 244.616 84.3282L238.626 83.9758C238.559 85.1224 238.525 86.2691 238.525 87.416H244.525ZM244.6 84.5025C244.715 83.53 244.887 82.5544 245.117 81.5751L239.277 80.2009C238.995 81.3976 238.783 82.598 238.642 83.8015L244.6 84.5025ZM245.132 81.5089L248.3 66.5329L242.43 65.2911L239.262 80.2671L245.132 81.5089ZM263.797 99.824C266.327 99.824 268.689 99.3767 270.814 98.3959L268.3 92.9481C267.097 93.5033 265.619 93.824 263.797 93.824V99.824ZM270.899 98.3553C272.887 97.3611 274.629 96.0485 276.102 94.4207L271.652 90.3953C270.693 91.4555 269.555 92.3189 268.215 92.9887L270.899 98.3553ZM276.049 94.477C277.605 92.844 278.823 90.9245 279.721 88.7551L274.177 86.4609C273.539 88.0035 272.709 89.284 271.705 90.339L276.049 94.477ZM279.687 88.8352C280.611 86.7737 281.314 84.5858 281.804 82.2785L275.934 81.0335C275.528 82.9502 274.951 84.7303 274.211 86.3808L279.687 88.8352ZM281.802 82.2869L285.354 65.7749L279.488 64.5131L275.936 81.0251L281.802 82.2869ZM285.37 65.6969C285.572 64.6189 285.717 63.6546 285.793 62.8236L279.817 62.2804C279.765 62.8574 279.654 63.6211 279.472 64.5911L285.37 65.6969ZM285.764 63.0452C285.917 62.1311 285.997 61.2295 285.997 60.344H279.997C279.997 60.8665 279.949 61.4369 279.846 62.0588L285.764 63.0452ZM285.997 60.344C285.997 56.553 284.983 53.1859 282.565 50.6776L278.245 54.8424C279.283 55.9181 279.997 57.607 279.997 60.344H285.997ZM282.639 50.7574C280.277 48.1231 277.011 46.976 273.301 46.976V52.976C275.735 52.976 277.205 53.6849 278.171 54.7626L282.639 50.7574ZM273.301 46.976C270.738 46.976 268.345 47.4678 266.199 48.5407L268.883 53.9073C270.065 53.3162 271.512 52.976 273.301 52.976V46.976ZM266.284 48.5001C264.272 49.4288 262.49 50.7085 260.953 52.323L265.297 56.461C266.32 55.3875 267.482 54.5552 268.798 53.9479L266.284 48.5001ZM260.9 52.3793C259.449 53.9832 258.261 55.8564 257.315 57.9648L262.791 60.4192C263.509 58.8156 264.369 57.4888 265.35 56.4047L260.9 52.3793ZM257.281 58.0449C256.438 60.0825 255.778 62.2433 255.294 64.5215L261.164 65.7665C261.576 63.8207 262.132 62.0135 262.825 60.3391L257.281 58.0449ZM255.296 64.5131L251.744 81.0251L257.61 82.2869L261.162 65.7749L255.296 64.5131ZM251.748 81.0052C251.326 82.9054 251.101 84.7264 251.101 86.456H257.101C257.101 85.2416 257.26 83.8626 257.606 82.3068L251.748 81.0052ZM251.101 86.456C251.101 90.2252 252.069 93.5799 254.363 96.1386L258.831 92.1334C257.797 90.98 257.101 89.2148 257.101 86.456H251.101ZM254.437 96.2184C256.858 98.7286 260.114 99.824 263.797 99.824V93.824C261.336 93.824 259.792 93.1274 258.757 92.0536L254.437 96.2184ZM322.098 73.016V70.016H319.098V73.016H322.098ZM351.762 73.016H354.762V70.016H351.762V73.016ZM351.762 74.168L354.698 74.786L354.762 74.4804V74.168H351.762ZM344.85 107V110H347.284L347.786 107.618L344.85 107ZM333.33 107L330.399 106.361L329.606 110H333.33V107ZM334.962 99.512L337.893 100.151L338.687 96.512H334.962V99.512ZM333.234 99.512V96.512H331.401L330.565 98.1431L333.234 99.512ZM327.474 105.848L329.109 108.363L329.131 108.349L329.153 108.335L327.474 105.848ZM310.194 107.096L311.294 104.305L311.257 104.29L311.219 104.277L310.194 107.096ZM304.722 103.544L302.558 105.622L304.722 103.544ZM301.074 97.688L298.244 98.6825L298.26 98.7292L298.278 98.7753L301.074 97.688ZM300.786 81.272L297.852 80.6459L297.852 80.6477L300.786 81.272ZM304.146 65.528L301.213 64.9008L301.212 64.9019L304.146 65.528ZM314.706 45.08L316.663 47.3537L316.666 47.3517L314.706 45.08ZM343.122 39.992L341.984 42.7675L342.026 42.7849L342.069 42.801L343.122 39.992ZM349.554 44.024L351.676 41.9027L349.554 44.024ZM353.49 50.072L350.694 51.1593L350.713 51.2069L350.733 51.2537L353.49 50.072ZM354.738 60.152L357.712 60.5485L357.714 60.5363L357.715 60.5241L354.738 60.152ZM354.258 62.84L357.169 63.5676L357.175 63.5411L357.181 63.5146L354.258 62.84ZM353.97 63.992V66.992H356.313L356.881 64.7196L353.97 63.992ZM341.298 63.992L338.388 63.2644L337.456 66.992H341.298V63.992ZM341.586 62.84L338.676 62.1124V62.1124L341.586 62.84ZM341.97 60.824L338.989 60.4927L341.97 60.824ZM339.57 52.856L337.535 55.0604L337.559 55.0819L337.583 55.103L339.57 52.856ZM327.186 51.416L326.17 48.5933V48.5933L327.186 51.416ZM322.674 54.2L324.687 56.4246L324.692 56.4198L322.674 54.2ZM319.122 59.096L321.788 60.4719L321.797 60.4548L321.806 60.4376L319.122 59.096ZM316.626 66.488L313.695 65.8507L313.694 65.854L316.626 66.488ZM313.554 80.696L316.483 81.3468L316.485 81.3384L316.486 81.33L313.554 80.696ZM313.074 83.576L310.085 83.3269L313.074 83.576ZM315.666 93.656L317.749 91.4965L315.666 93.656ZM332.178 93.272L334.105 95.5716L334.111 95.5667L332.178 93.272ZM336.882 85.112L339.82 85.7216L340.569 82.112H336.882V85.112ZM322.098 85.112H319.098V88.112H322.098V85.112ZM322.098 76.016H351.762V70.016H322.098V76.016ZM348.762 73.016V74.168H354.762V73.016H348.762ZM348.827 73.55L341.915 106.382L347.786 107.618L354.698 74.786L348.827 73.55ZM344.85 104H333.33V110H344.85V104ZM336.261 107.639L337.893 100.151L332.031 98.8732L330.399 106.361L336.261 107.639ZM334.962 96.512H333.234V102.512H334.962V96.512ZM330.565 98.1431C329.538 100.145 327.98 101.887 325.796 103.361L329.153 108.335C332.089 106.353 334.37 103.871 335.904 100.881L330.565 98.1431ZM325.839 103.333C323.932 104.573 321.113 105.344 317.106 105.344V111.344C321.803 111.344 325.897 110.451 329.109 108.363L325.839 103.333ZM317.106 105.344C314.949 105.344 313.022 104.986 311.294 104.305L309.095 109.887C311.59 110.87 314.271 111.344 317.106 111.344V105.344ZM311.219 104.277C309.533 103.663 308.1 102.731 306.886 101.466L302.558 105.622C304.416 107.557 306.632 108.993 309.169 109.915L311.219 104.277ZM306.886 101.466C305.654 100.183 304.639 98.5784 303.87 96.6007L298.278 98.7753C299.301 101.406 300.719 103.705 302.558 105.622L306.886 101.466ZM303.905 96.6935C303.207 94.7075 302.826 92.3345 302.826 89.528H296.826C296.826 92.8655 297.278 95.9325 298.244 98.6825L303.905 96.6935ZM302.826 89.528C302.826 87.2835 303.115 84.7444 303.721 81.8963L297.852 80.6477C297.178 83.8156 296.826 86.7805 296.826 89.528H302.826ZM303.72 81.8981L307.08 66.1541L301.212 64.9019L297.852 80.6459L303.72 81.8981ZM307.08 66.1552C308.983 57.253 312.275 51.1309 316.663 47.3537L312.749 42.8063C307.025 47.7331 303.277 55.243 301.213 64.9008L307.08 66.1552ZM316.666 47.3517C321.136 43.4962 327.017 41.456 334.578 41.456V35.456C325.883 35.456 318.517 37.8318 312.747 42.8083L316.666 47.3517ZM334.578 41.456C337.459 41.456 339.91 41.9166 341.984 42.7675L344.261 37.2165C341.343 36.0194 338.097 35.456 334.578 35.456V41.456ZM342.069 42.801C344.276 43.6286 346.042 44.7543 347.433 46.1453L351.676 41.9027C349.611 39.8377 347.089 38.2754 344.176 37.183L342.069 42.801ZM347.433 46.1453C348.863 47.5757 349.947 49.2384 350.694 51.1593L356.286 48.9846C355.241 46.2976 353.701 43.9283 351.676 41.9027L347.433 46.1453ZM350.733 51.2537C351.525 53.1016 351.93 55.0974 351.93 57.272H357.93C357.93 54.3266 357.376 51.5224 356.248 48.8902L350.733 51.2537ZM351.93 57.272C351.93 58.0266 351.876 58.8612 351.761 59.7799L357.715 60.5241C357.856 59.3947 357.93 58.3094 357.93 57.272H351.93ZM351.765 59.7555C351.647 60.6342 351.503 61.4365 351.335 62.1654L357.181 63.5146C357.397 62.5795 357.573 61.5898 357.712 60.5485L351.765 59.7555ZM351.348 62.1124L351.06 63.2644L356.881 64.7196L357.169 63.5676L351.348 62.1124ZM353.97 60.992H341.298V66.992H353.97V60.992ZM344.209 64.7196L344.497 63.5676L338.676 62.1124L338.388 63.2644L344.209 64.7196ZM344.497 63.5676C344.71 62.7128 344.869 61.9031 344.952 61.1553L338.989 60.4927C338.944 60.8969 338.846 61.4312 338.676 62.1124L344.497 63.5676ZM344.952 61.1553C345.028 60.47 345.066 59.7834 345.066 59.096H339.066C339.066 59.5606 339.04 60.026 338.989 60.4927L344.952 61.1553ZM345.066 59.096C345.066 55.7451 343.999 52.7688 341.558 50.609L337.583 55.103C338.469 55.8872 339.066 57.0709 339.066 59.096H345.066ZM341.605 50.6516C339.194 48.4261 335.917 47.552 332.274 47.552V53.552C335.031 53.552 336.618 54.2139 337.535 55.0604L341.605 50.6516ZM332.274 47.552C330.155 47.552 328.113 47.8938 326.17 48.5933L328.202 54.2387C329.459 53.7862 330.81 53.552 332.274 53.552V47.552ZM326.17 48.5933C324.158 49.3176 322.321 50.4669 320.656 51.9802L324.692 56.4198C325.844 55.3731 327.014 54.6664 328.202 54.2387L326.17 48.5933ZM320.661 51.9754C318.979 53.4977 317.588 55.4572 316.439 57.7544L321.806 60.4376C322.705 58.6388 323.682 57.3343 324.687 56.4246L320.661 51.9754ZM316.456 57.7201C315.278 60.0027 314.372 62.733 313.695 65.8507L319.558 67.1253C320.16 64.355 320.918 62.1573 321.788 60.4719L316.456 57.7201ZM313.694 65.854L310.622 80.062L316.486 81.33L319.559 67.122L313.694 65.854ZM310.626 80.0452C310.354 81.268 310.164 82.3728 310.085 83.3269L316.064 83.8251C316.112 83.2432 316.243 82.428 316.483 81.3468L310.626 80.0452ZM310.085 83.3269C310.014 84.1774 309.978 85.0286 309.978 85.88H315.978C315.978 85.1954 316.007 84.5106 316.064 83.8251L310.085 83.3269ZM309.978 85.88C309.978 89.8267 311.007 93.3311 313.584 95.8155L317.749 91.4965C316.741 90.5249 315.978 88.8453 315.978 85.88H309.978ZM313.584 95.8155C316.059 98.2026 319.305 99.248 322.962 99.248V93.248C320.475 93.248 318.857 92.5654 317.749 91.4965L313.584 95.8155ZM322.962 99.248C327.28 99.248 331.084 98.1024 334.105 95.5716L330.252 90.9724C328.536 92.4096 326.196 93.248 322.962 93.248V99.248ZM334.111 95.5667C337.104 93.046 338.992 89.7093 339.82 85.7216L333.945 84.5023C333.364 87.2987 332.116 89.402 330.246 90.9773L334.111 95.5667ZM336.882 82.112H322.098V88.112H336.882V82.112ZM325.098 85.112V73.016H319.098V85.112H325.098ZM401.232 107V110H403.655L404.165 107.63L401.232 107ZM388.367 107L385.434 106.371L384.657 110H388.367V107ZM392.688 86.84L395.621 87.4686L395.625 87.4485L395.629 87.4283L392.688 86.84ZM391.824 82.712L389.702 84.8333L389.753 84.8838L389.805 84.9318L391.824 82.712ZM374.639 81.656V78.656H372.209L371.705 81.0335L374.639 81.656ZM369.263 107V110H371.694L372.198 107.623L369.263 107ZM356.688 107L353.752 106.379L352.987 110H356.688V107ZM370.896 39.8V36.8H368.463L367.96 39.1794L370.896 39.8ZM402.768 41.144L401.706 43.9499L401.751 43.9669L401.796 43.9825L402.768 41.144ZM408.815 44.6L406.784 46.8078L406.83 46.8499L406.878 46.8902L408.815 44.6ZM412.464 49.688L409.666 50.771L409.681 50.8098L409.697 50.8482L412.464 49.688ZM410.448 67.352L408.035 65.5688L408.028 65.5779L410.448 67.352ZM400.656 73.88L399.707 71.034L397.656 71.7177V73.88H400.656ZM400.656 75.608H397.656V78.3137L400.347 78.5921L400.656 75.608ZM404.88 77.624L402.575 79.5446L402.633 79.6141L402.695 79.6801L404.88 77.624ZM406.224 83.768L409.157 84.3982L409.161 84.3773L409.165 84.3563L406.224 83.768ZM377.232 69.56L374.297 68.938L373.529 72.56H377.232V69.56ZM397.104 66.872L399.011 69.1878L397.104 66.872ZM398.352 53.912L396.179 55.981L396.204 56.0075L396.23 56.0333L398.352 53.912ZM380.975 51.896V48.896H378.545L378.041 51.2739L380.975 51.896ZM401.232 104H388.367V110H401.232V104ZM391.301 107.629L395.621 87.4686L389.754 86.2114L385.434 106.371L391.301 107.629ZM395.629 87.4283C395.773 86.7088 395.879 85.9753 395.879 85.304H389.879C389.879 85.4007 389.858 85.6912 389.746 86.2517L395.629 87.4283ZM395.879 85.304C395.879 83.5046 395.264 81.785 393.842 80.4922L389.805 84.9318C389.824 84.9484 389.83 84.9571 389.83 84.9579C389.831 84.9585 389.833 84.9615 389.837 84.9719C389.845 84.9899 389.879 85.0845 389.879 85.304H395.879ZM393.945 80.5907C392.458 79.1035 390.449 78.656 388.56 78.656V84.656C389.614 84.656 389.781 84.9125 389.702 84.8333L393.945 80.5907ZM388.56 78.656H374.639V84.656H388.56V78.656ZM371.705 81.0335L366.329 106.377L372.198 107.623L377.574 82.2785L371.705 81.0335ZM369.263 104H356.688V110H369.263V104ZM359.623 107.621L373.831 40.4206L367.96 39.1794L353.752 106.379L359.623 107.621ZM370.896 42.8H394.512V36.8H370.896V42.8ZM394.512 42.8C397.368 42.8 399.747 43.2088 401.706 43.9499L403.829 38.3381C401.052 37.2872 397.927 36.8 394.512 36.8V42.8ZM401.796 43.9825C403.906 44.7041 405.541 45.6637 406.784 46.8078L410.847 42.3922C408.89 40.5923 406.493 39.2479 403.739 38.3055L401.796 43.9825ZM406.878 46.8902C408.168 47.9823 409.084 49.2668 409.666 50.771L415.261 48.605C414.307 46.1412 412.791 44.0337 410.753 42.3098L406.878 46.8902ZM409.697 50.8482C410.373 52.4605 410.712 54.1457 410.712 55.928H416.712C416.712 53.3583 416.218 50.8835 415.23 48.5278L409.697 50.8482ZM410.712 55.928C410.712 60.1365 409.735 63.2681 408.035 65.5688L412.86 69.1352C415.512 65.5479 416.712 61.0635 416.712 55.928H410.712ZM408.028 65.5779C406.381 67.8245 403.711 69.6991 399.707 71.034L401.604 76.726C406.432 75.1169 410.29 72.6395 412.867 69.1261L408.028 65.5779ZM397.656 73.88V75.608H403.656V73.88H397.656ZM400.347 78.5921C401.625 78.7243 402.232 79.1327 402.575 79.5446L407.184 75.7034C405.607 73.8113 403.398 72.8757 400.964 72.6239L400.347 78.5921ZM402.695 79.6801C403.113 80.1247 403.415 80.7559 403.415 81.848H409.415C409.415 79.4841 408.694 77.2993 407.064 75.5679L402.695 79.6801ZM403.415 81.848C403.415 82.2866 403.372 82.7295 403.282 83.1797L409.165 84.3563C409.331 83.5265 409.415 82.6894 409.415 81.848H403.415ZM403.29 83.1378L398.298 106.37L404.165 107.63L409.157 84.3982L403.29 83.1378ZM377.232 72.56H388.751V66.56H377.232V72.56ZM388.751 72.56C392.692 72.56 396.194 71.5074 399.011 69.1878L395.196 64.5562C393.661 65.8206 391.595 66.56 388.751 66.56V72.56ZM399.011 69.1878C401.946 66.7701 403.367 63.4529 403.367 59.576H397.367C397.367 61.8431 396.613 63.3899 395.196 64.5562L399.011 69.1878ZM403.367 59.576C403.367 56.5814 402.525 53.8431 400.473 51.7907L396.23 56.0333C396.866 56.6689 397.367 57.7066 397.367 59.576H403.367ZM400.524 51.843C398.464 49.6805 395.537 48.896 392.4 48.896V54.896C394.638 54.896 395.679 55.4555 396.179 55.981L400.524 51.843ZM392.4 48.896H380.975V54.896H392.4V48.896ZM378.041 51.2739L374.297 68.938L380.166 70.182L383.91 52.5181L378.041 51.2739ZM452.717 92.6L455.716 92.56L455.677 89.6H452.717V92.6ZM430.541 92.6V89.6H428.559L427.781 91.4227L430.541 92.6ZM424.397 107V110H426.378L427.156 108.177L424.397 107ZM410.861 107L408.115 105.792L406.263 110H410.861V107ZM440.429 39.8V36.8H438.471L437.683 38.5918L440.429 39.8ZM463.853 39.8L466.852 39.7272L466.781 36.8H463.853V39.8ZM465.485 107V110H468.559L468.484 106.927L465.485 107ZM452.909 107L449.909 107.04L449.948 110H452.909V107ZM435.629 80.504L432.87 79.325L431.084 83.504H435.629V80.504ZM452.525 80.504V83.504H455.567L455.524 80.4621L452.525 80.504ZM452.045 46.136L455.044 46.0941L455.003 43.136H452.045V46.136ZM450.317 46.136V43.136H448.336L447.558 44.957L450.317 46.136ZM452.717 89.6H430.541V95.6H452.717V89.6ZM427.781 91.4227L421.637 105.823L427.156 108.177L433.3 93.7773L427.781 91.4227ZM424.397 104H410.861V110H424.397V104ZM413.607 108.208L443.175 41.0082L437.683 38.5918L408.115 105.792L413.607 108.208ZM440.429 42.8H463.853V36.8H440.429V42.8ZM460.854 39.8728L462.486 107.073L468.484 106.927L466.852 39.7272L460.854 39.8728ZM465.485 104H452.909V110H465.485V104ZM455.908 106.96L455.716 92.56L449.717 92.64L449.909 107.04L455.908 106.96ZM435.629 83.504H452.525V77.504H435.629V83.504ZM455.524 80.4621L455.044 46.0941L449.045 46.1779L449.525 80.5459L455.524 80.4621ZM452.045 43.136H450.317V49.136H452.045V43.136ZM447.558 44.957L432.87 79.325L438.387 81.683L453.075 47.315L447.558 44.957ZM492.202 81.656V78.656H489.772L489.267 81.0335L492.202 81.656ZM486.826 107V110H489.256L489.761 107.623L486.826 107ZM474.25 107L471.315 106.379L470.549 110H474.25V107ZM488.458 39.8V36.8H486.026L485.523 39.1794L488.458 39.8ZM520.042 41.144L518.928 43.9294L518.941 43.9348L518.955 43.94L520.042 41.144ZM529.546 50.552L526.744 51.6234L526.757 51.659L526.772 51.6942L529.546 50.552ZM523.882 75.032L525.94 77.2148L523.882 75.032ZM515.818 79.928L516.852 82.744L515.818 79.928ZM494.794 69.56L491.859 68.938L491.091 72.56H494.794V69.56ZM514.666 66.68L516.651 68.9295L514.666 66.68ZM515.626 53.816L513.657 56.0798L513.71 56.1252L513.764 56.1681L515.626 53.816ZM498.538 51.896V48.896H496.107L495.603 51.2739L498.538 51.896ZM489.267 81.0335L483.891 106.377L489.761 107.623L495.137 82.2785L489.267 81.0335ZM486.826 104H474.25V110H486.826V104ZM477.185 107.621L491.393 40.4206L485.523 39.1794L471.315 106.379L477.185 107.621ZM488.458 42.8H512.458V36.8H488.458V42.8ZM512.458 42.8C514.955 42.8 517.096 43.1968 518.928 43.9294L521.156 38.3586C518.508 37.2992 515.593 36.8 512.458 36.8V42.8ZM518.955 43.94C520.907 44.6993 522.497 45.7297 523.777 47.0093L528.019 42.7667C526.099 40.8462 523.785 39.3807 521.129 38.348L518.955 43.94ZM523.777 47.0093C525.07 48.3022 526.058 49.8294 526.744 51.6234L532.348 49.4806C531.37 46.9226 529.926 44.6738 528.019 42.7667L523.777 47.0093ZM526.772 51.6942C527.506 53.4772 527.89 55.4532 527.89 57.656H533.89C533.89 54.7388 533.378 51.9788 532.32 49.4098L526.772 51.6942ZM527.89 57.656C527.89 60.8961 527.342 63.7647 526.293 66.3027L531.839 68.5933C533.222 65.2433 533.89 61.5839 533.89 57.656H527.89ZM526.293 66.3027C525.234 68.8681 523.744 71.0387 521.824 72.8492L525.94 77.2148C528.5 74.8013 530.466 71.9159 531.839 68.5933L526.293 66.3027ZM521.824 72.8492C519.903 74.6602 517.572 76.0877 514.784 77.112L516.852 82.744C520.336 81.4643 523.381 79.6278 525.94 77.2148L521.824 72.8492ZM514.784 77.112C512.024 78.1256 508.893 78.656 505.354 78.656V84.656C509.495 84.656 513.34 84.0344 516.852 82.744L514.784 77.112ZM505.354 78.656H492.202V84.656H505.354V78.656ZM494.794 72.56H506.506V66.56H494.794V72.56ZM506.506 72.56C510.403 72.56 513.858 71.3941 516.651 68.9295L512.681 64.4305C511.122 65.8059 509.137 66.56 506.506 66.56V72.56ZM516.651 68.9295C519.514 66.4033 520.93 63.0676 520.93 59.192H514.93C514.93 61.4604 514.17 63.1167 512.681 64.4305L516.651 68.9295ZM520.93 59.192C520.93 56.1198 519.894 53.3689 517.488 51.4639L513.764 56.1681C514.43 56.6951 514.93 57.5282 514.93 59.192H520.93ZM517.595 51.5522C515.452 49.6888 512.741 48.896 509.77 48.896V54.896C511.663 54.896 512.856 55.3832 513.657 56.0798L517.595 51.5522ZM509.77 48.896H498.538V54.896H509.77V48.896ZM495.603 51.2739L491.859 68.938L497.729 70.182L501.473 52.5181L495.603 51.2739ZM547.239 39.8V36.8H544.807L544.304 39.1794L547.239 39.8ZM559.911 39.8L562.845 40.4258L563.619 36.8H559.911V39.8ZM554.055 67.256L551.121 66.6302L550.348 70.256H554.055V67.256ZM573.255 67.256V70.256H575.683L576.189 67.8818L573.255 67.256ZM579.111 39.8V36.8H576.684L576.177 39.1742L579.111 39.8ZM591.783 39.8L594.718 40.4246L595.489 36.8H591.783V39.8ZM577.479 107V110H579.908L580.414 107.625L577.479 107ZM564.807 107L561.872 106.378L561.105 110H564.807V107ZM570.663 79.352L573.598 79.9736L574.365 76.352H570.663V79.352ZM551.463 79.352V76.352H549.032L548.528 78.7304L551.463 79.352ZM545.607 107V110H548.038L548.542 107.622L545.607 107ZM533.031 107L530.096 106.379L529.331 110H533.031V107ZM547.239 42.8H559.911V36.8H547.239V42.8ZM556.977 39.1742L551.121 66.6302L556.989 67.8818L562.845 40.4258L556.977 39.1742ZM554.055 70.256H573.255V64.256H554.055V70.256ZM576.189 67.8818L582.045 40.4258L576.177 39.1742L570.321 66.6302L576.189 67.8818ZM579.111 42.8H591.783V36.8H579.111V42.8ZM588.849 39.1754L574.545 106.375L580.414 107.625L594.718 40.4246L588.849 39.1754ZM577.479 104H564.807V110H577.479V104ZM567.742 107.622L573.598 79.9736L567.728 78.7304L561.872 106.378L567.742 107.622ZM570.663 76.352H551.463V82.352H570.663V76.352ZM548.528 78.7304L542.672 106.378L548.542 107.622L554.398 79.9736L548.528 78.7304ZM545.607 104H533.031V110H545.607V104ZM535.966 107.621L550.174 40.4206L544.304 39.1794L530.096 106.379L535.966 107.621ZM593.541 105.848L590.606 105.225L590.541 105.533V105.848H593.541ZM607.557 39.8V36.8H605.126L604.622 39.1772L607.557 39.8ZM647.396 39.8H650.396V36.8H647.396V39.8ZM647.396 51.896V54.896H650.396V51.896H647.396ZM617.636 51.896V48.896H615.207L614.702 51.2724L617.636 51.896ZM614.372 67.256L611.438 66.6324L610.668 70.256H614.372V67.256ZM640.388 67.256H643.388V64.256H640.388V67.256ZM640.388 79.352V82.352H643.388V79.352H640.388ZM611.781 79.352V76.352H609.345L608.844 78.7358L611.781 79.352ZM608.516 94.904L605.58 94.2878L604.822 97.904H608.516V94.904ZM636.836 94.904H639.836V91.904H636.836V94.904ZM636.836 107V110H639.836V107H636.836ZM593.541 107H590.541V110H593.541V107ZM596.475 106.471L610.491 40.4228L604.622 39.1772L590.606 105.225L596.475 106.471ZM607.557 42.8H647.396V36.8H607.557V42.8ZM644.396 39.8V51.896H650.396V39.8H644.396ZM647.396 48.896H617.636V54.896H647.396V48.896ZM614.702 51.2724L611.438 66.6324L617.307 67.8796L620.571 52.5196L614.702 51.2724ZM614.372 70.256H640.388V64.256H614.372V70.256ZM637.388 67.256V79.352H643.388V67.256H637.388ZM640.388 76.352H611.781V82.352H640.388V76.352ZM608.844 78.7358L605.58 94.2878L611.453 95.5202L614.717 79.9682L608.844 78.7358ZM608.516 97.904H636.836V91.904H608.516V97.904ZM633.836 94.904V107H639.836V94.904H633.836ZM636.836 104H593.541V110H636.836V104ZM596.541 107V105.848H590.541V107H596.541ZM711.103 105.848L708.168 105.225L708.103 105.533V105.848H711.103ZM725.119 39.8V36.8H722.689L722.184 39.1772L725.119 39.8ZM764.959 39.8H767.959V36.8H764.959V39.8ZM764.959 51.896V54.896H767.959V51.896H764.959ZM735.199 51.896V48.896H732.77L732.265 51.2724L735.199 51.896ZM731.935 67.256L729.001 66.6324L728.231 70.256H731.935V67.256ZM757.951 67.256H760.951V64.256H757.951V67.256ZM757.951 79.352V82.352H760.951V79.352H757.951ZM729.343 79.352V76.352H726.907L726.407 78.7358L729.343 79.352ZM726.079 94.904L723.143 94.2878L722.384 97.904H726.079V94.904ZM754.399 94.904H757.399V91.904H754.399V94.904ZM754.399 107V110H757.399V107H754.399ZM711.103 107H708.103V110H711.103V107ZM714.038 106.471L728.054 40.4228L722.184 39.1772L708.168 105.225L714.038 106.471ZM725.119 42.8H764.959V36.8H725.119V42.8ZM761.959 39.8V51.896H767.959V39.8H761.959ZM764.959 48.896H735.199V54.896H764.959V48.896ZM732.265 51.2724L729.001 66.6324L734.87 67.8796L738.133 52.5196L732.265 51.2724ZM731.935 70.256H757.951V64.256H731.935V70.256ZM754.951 67.256V79.352H760.951V67.256H754.951ZM757.951 76.352H729.343V82.352H757.951V76.352ZM726.407 78.7358L723.143 94.2878L729.015 95.5202L732.279 79.9682L726.407 78.7358ZM726.079 97.904H754.399V91.904H726.079V97.904ZM751.399 94.904V107H757.399V94.904H751.399ZM754.399 104H711.103V110H754.399V104ZM714.103 107V105.848H708.103V107H714.103ZM773.916 39.8V36.8H770.767L770.92 39.9455L773.916 39.8ZM786.78 39.8L789.778 39.6912L789.673 36.8H786.78V39.8ZM788.988 100.664L785.99 100.773L786.095 103.664H788.988V100.664ZM790.716 100.664V103.664H792.702L793.478 101.836L790.716 100.664ZM816.54 39.8V36.8H814.554L813.779 38.6282L816.54 39.8ZM829.788 39.8H832.788V36.8H829.788V39.8ZM829.788 40.952L832.535 42.1578L832.788 41.5814V40.952H829.788ZM800.796 107V110H802.756L803.543 108.206L800.796 107ZM777.18 107L774.184 107.146L774.322 110H777.18V107ZM773.916 42.8H786.78V36.8H773.916V42.8ZM783.782 39.9088L785.99 100.773L791.986 100.555L789.778 39.6912L783.782 39.9088ZM788.988 103.664H790.716V97.664H788.988V103.664ZM793.478 101.836L819.302 40.9718L813.779 38.6282L787.955 99.4922L793.478 101.836ZM816.54 42.8H829.788V36.8H816.54V42.8ZM826.788 39.8V40.952H832.788V39.8H826.788ZM827.041 39.7462L798.049 105.794L803.543 108.206L832.535 42.1578L827.041 39.7462ZM800.796 104H777.18V110H800.796V104ZM780.177 106.854L776.913 39.6545L770.92 39.9455L774.184 107.146L780.177 106.854ZM828.666 105.848L825.731 105.225L825.666 105.533V105.848H828.666ZM842.682 39.8V36.8H840.251L839.747 39.1772L842.682 39.8ZM882.521 39.8H885.521V36.8H882.521V39.8ZM882.521 51.896V54.896H885.521V51.896H882.521ZM852.761 51.896V48.896H850.332L849.827 51.2724L852.761 51.896ZM849.497 67.256L846.563 66.6324L845.793 70.256H849.497V67.256ZM875.513 67.256H878.513V64.256H875.513V67.256ZM875.513 79.352V82.352H878.513V79.352H875.513ZM846.906 79.352V76.352H844.47L843.969 78.7358L846.906 79.352ZM843.641 94.904L840.705 94.2878L839.947 97.904H843.641V94.904ZM871.961 94.904H874.961V91.904H871.961V94.904ZM871.961 107V110H874.961V107H871.961ZM828.666 107H825.666V110H828.666V107ZM831.6 106.471L845.616 40.4228L839.747 39.1772L825.731 105.225L831.6 106.471ZM842.682 42.8H882.521V36.8H842.682V42.8ZM879.521 39.8V51.896H885.521V39.8H879.521ZM882.521 48.896H852.761V54.896H882.521V48.896ZM849.827 51.2724L846.563 66.6324L852.432 67.8796L855.696 52.5196L849.827 51.2724ZM849.497 70.256H875.513V64.256H849.497V70.256ZM872.513 67.256V79.352H878.513V67.256H872.513ZM875.513 76.352H846.906V82.352H875.513V76.352ZM843.969 78.7358L840.705 94.2878L846.578 95.5202L849.842 79.9682L843.969 78.7358ZM843.641 97.904H871.961V91.904H843.641V97.904ZM868.961 94.904V107H874.961V94.904H868.961ZM871.961 104H828.666V110H871.961V104ZM831.666 107V105.848H825.666V107H831.666ZM918.359 100.664L915.367 100.442L915.128 103.664H918.359V100.664ZM920.087 100.664V103.664H922.515L923.021 101.289L920.087 100.664ZM933.047 39.8V36.8H930.618L930.113 39.1752L933.047 39.8ZM945.143 39.8L948.077 40.4246L948.849 36.8H945.143V39.8ZM930.839 107V110H933.267L933.773 107.625L930.839 107ZM907.223 107L904.231 106.778L903.992 110H907.223V107ZM911.735 46.136L914.727 46.3578L914.965 43.136H911.735V46.136ZM910.007 46.136V43.136H907.578L907.073 45.5112L910.007 46.136ZM897.047 107V110H899.475L899.981 107.625L897.047 107ZM885.047 107L882.112 106.379L881.346 110H885.047V107ZM899.255 39.8V36.8H896.823L896.32 39.1794L899.255 39.8ZM922.871 39.8L925.863 40.0218L926.101 36.8H922.871V39.8ZM918.359 103.664H920.087V97.664H918.359V103.664ZM923.021 101.289L935.981 40.4248L930.113 39.1752L917.153 100.039L923.021 101.289ZM933.047 42.8H945.143V36.8H933.047V42.8ZM942.208 39.1754L927.904 106.375L933.773 107.625L948.077 40.4246L942.208 39.1754ZM930.839 104H907.223V110H930.839V104ZM910.215 107.222L914.727 46.3578L908.743 45.9142L904.231 106.778L910.215 107.222ZM911.735 43.136H910.007V49.136H911.735V43.136ZM907.073 45.5112L894.113 106.375L899.981 107.625L912.941 46.7608L907.073 45.5112ZM897.047 104H885.047V110H897.047V104ZM887.982 107.621L902.19 40.4206L896.32 39.1794L882.112 106.379L887.982 107.621ZM899.255 42.8H922.871V36.8H899.255V42.8ZM919.879 39.5782L915.367 100.442L921.351 100.886L925.863 40.0218L919.879 39.5782ZM954.1 39.8V36.8H951.1V39.8H954.1ZM1002.48 39.8H1005.48V36.8H1002.48V39.8ZM1002.48 51.896V54.896H1005.48V51.896H1002.48ZM984.628 51.896V48.896H982.199L981.694 51.2723L984.628 51.896ZM972.916 107V110H975.345L975.85 107.624L972.916 107ZM960.244 107L957.31 106.376L956.539 110H960.244V107ZM971.956 51.896L974.89 52.5197L975.661 48.896H971.956V51.896ZM954.1 51.896H951.1V54.896H954.1V51.896ZM954.1 42.8H1002.48V36.8H954.1V42.8ZM999.484 39.8V51.896H1005.48V39.8H999.484ZM1002.48 48.896H984.628V54.896H1002.48V48.896ZM981.694 51.2723L969.982 106.376L975.85 107.624L987.562 52.5197L981.694 51.2723ZM972.916 104H960.244V110H972.916V104ZM963.178 107.624L974.89 52.5197L969.022 51.2723L957.31 106.376L963.178 107.624ZM971.956 48.896H954.1V54.896H971.956V48.896ZM957.1 51.896V39.8H951.1V51.896H957.1Z" fill="white" mask="url(#path-1-outside-1_84416_3657)"/>
</svg>
